<?xml version="1.0" encoding="UTF-8" ?>
<svg version="1.1" width="33" height="32" xmlns="http://www.w3.org/2000/svg" shape-rendering="crispEdges">
<rect x="0" y="11" width="1" height="1" fill="#616161" />
<rect x="1" y="11" width="1" height="1" fill="#616161" />
<rect x="2" y="11" width="1" height="1" fill="#616161" />
<rect x="3" y="11" width="1" height="1" fill="#616161" />
<rect x="4" y="11" width="1" height="1" fill="#616161" />
<rect x="5" y="11" width="1" height="1" fill="#616161" />
<rect x="6" y="11" width="1" height="1" fill="#616161" />
<rect x="7" y="11" width="1" height="1" fill="#616161" />
<rect x="8" y="11" width="1" height="1" fill="#616161" />
<rect x="9" y="11" width="1" height="1" fill="#616161" />
<rect x="10" y="11" width="1" height="1" fill="#616161" />
<rect x="11" y="11" width="1" height="1" fill="#616161" />
<rect x="12" y="11" width="1" height="1" fill="#616161" />
<rect x="13" y="11" width="1" height="1" fill="#616161" />
<rect x="14" y="11" width="1" height="1" fill="#616161" />
<rect x="15" y="11" width="1" height="1" fill="#616161" />
<rect x="16" y="11" width="1" height="1" fill="#616161" />
<rect x="17" y="11" width="1" height="1" fill="#616161" />
<rect x="18" y="11" width="1" height="1" fill="#616161" />
<rect x="19" y="11" width="1" height="1" fill="#616161" />
<rect x="20" y="11" width="1" height="1" fill="#616161" />
<rect x="21" y="11" width="1" height="1" fill="#616161" />
<rect x="22" y="11" width="1" height="1" fill="#616161" />
<rect x="23" y="11" width="1" height="1" fill="#616161" />
<rect x="24" y="11" width="1" height="1" fill="#616161" />
<rect x="25" y="11" width="1" height="1" fill="#616161" />
<rect x="26" y="11" width="1" height="1" fill="#616161" />
<rect x="27" y="11" width="1" height="1" fill="#616161" />
<rect x="28" y="11" width="1" height="1" fill="#616161" />
<rect x="29" y="11" width="1" height="1" fill="#616161" />
<rect x="30" y="11" width="1" height="1" fill="#616161" />
<rect x="31" y="11" width="1" height="1" fill="#616161" />
<rect x="32" y="11" width="1" height="1" fill="#616161" />
<rect x="0" y="12" width="1" height="1" fill="#ABAEB1" />
<rect x="1" y="12" width="1" height="1" fill="#8F9091" />
<rect x="2" y="12" width="1" height="1" fill="#ABAEB1" />
<rect x="3" y="12" width="1" height="1" fill="#ABAEB1" />
<rect x="4" y="12" width="1" height="1" fill="#8F9091" />
<rect x="5" y="12" width="1" height="1" fill="#ABAEB1" />
<rect x="6" y="12" width="1" height="1" fill="#ABAEB1" />
<rect x="7" y="12" width="1" height="1" fill="#8F9091" />
<rect x="8" y="12" width="1" height="1" fill="#ABAEB1" />
<rect x="9" y="12" width="1" height="1" fill="#ABAEB1" />
<rect x="10" y="12" width="1" height="1" fill="#8F9091" />
<rect x="11" y="12" width="1" height="1" fill="#ABAEB1" />
<rect x="12" y="12" width="1" height="1" fill="#ABAEB1" />
<rect x="13" y="12" width="1" height="1" fill="#8F9091" />
<rect x="14" y="12" width="1" height="1" fill="#ABAEB1" />
<rect x="15" y="12" width="1" height="1" fill="#ABAEB1" />
<rect x="16" y="12" width="1" height="1" fill="#8F9091" />
<rect x="17" y="12" width="1" height="1" fill="#ABAEB1" />
<rect x="18" y="12" width="1" height="1" fill="#ABAEB1" />
<rect x="19" y="12" width="1" height="1" fill="#8F9091" />
<rect x="20" y="12" width="1" height="1" fill="#ABAEB1" />
<rect x="21" y="12" width="1" height="1" fill="#ABAEB1" />
<rect x="22" y="12" width="1" height="1" fill="#8F9091" />
<rect x="23" y="12" width="1" height="1" fill="#ABAEB1" />
<rect x="24" y="12" width="1" height="1" fill="#ABAEB1" />
<rect x="25" y="12" width="1" height="1" fill="#8F9091" />
<rect x="26" y="12" width="1" height="1" fill="#ABAEB1" />
<rect x="27" y="12" width="1" height="1" fill="#ABAEB1" />
<rect x="28" y="12" width="1" height="1" fill="#8F9091" />
<rect x="29" y="12" width="1" height="1" fill="#ABAEB1" />
<rect x="30" y="12" width="1" height="1" fill="#ABAEB1" />
<rect x="31" y="12" width="1" height="1" fill="#8F9091" />
<rect x="32" y="12" width="1" height="1" fill="#ABAEB1" />
<rect x="0" y="13" width="1" height="1" fill="#ABAEB1" />
<rect x="1" y="13" width="1" height="1" fill="#ABAEB1" />
<rect x="2" y="13" width="1" height="1" fill="#8F9091" />
<rect x="3" y="13" width="1" height="1" fill="#ABAEB1" />
<rect x="4" y="13" width="1" height="1" fill="#ABAEB1" />
<rect x="5" y="13" width="1" height="1" fill="#8F9091" />
<rect x="6" y="13" width="1" height="1" fill="#ABAEB1" />
<rect x="7" y="13" width="1" height="1" fill="#ABAEB1" />
<rect x="8" y="13" width="1" height="1" fill="#8F9091" />
<rect x="9" y="13" width="1" height="1" fill="#ABAEB1" />
<rect x="10" y="13" width="1" height="1" fill="#ABAEB1" />
<rect x="11" y="13" width="1" height="1" fill="#8F9091" />
<rect x="12" y="13" width="1" height="1" fill="#ABAEB1" />
<rect x="13" y="13" width="1" height="1" fill="#ABAEB1" />
<rect x="14" y="13" width="1" height="1" fill="#8F9091" />
<rect x="15" y="13" width="1" height="1" fill="#ABAEB1" />
<rect x="16" y="13" width="1" height="1" fill="#ABAEB1" />
<rect x="17" y="13" width="1" height="1" fill="#8F9091" />
<rect x="18" y="13" width="1" height="1" fill="#ABAEB1" />
<rect x="19" y="13" width="1" height="1" fill="#ABAEB1" />
<rect x="20" y="13" width="1" height="1" fill="#8F9091" />
<rect x="21" y="13" width="1" height="1" fill="#ABAEB1" />
<rect x="22" y="13" width="1" height="1" fill="#ABAEB1" />
<rect x="23" y="13" width="1" height="1" fill="#8F9091" />
<rect x="24" y="13" width="1" height="1" fill="#ABAEB1" />
<rect x="25" y="13" width="1" height="1" fill="#ABAEB1" />
<rect x="26" y="13" width="1" height="1" fill="#8F9091" />
<rect x="27" y="13" width="1" height="1" fill="#ABAEB1" />
<rect x="28" y="13" width="1" height="1" fill="#ABAEB1" />
<rect x="29" y="13" width="1" height="1" fill="#8F9091" />
<rect x="30" y="13" width="1" height="1" fill="#ABAEB1" />
<rect x="31" y="13" width="1" height="1" fill="#ABAEB1" />
<rect x="32" y="13" width="1" height="1" fill="#8F9091" />
<rect x="0" y="14" width="1" height="1" fill="#8F9091" />
<rect x="1" y="14" width="1" height="1" fill="#ABAEB1" />
<rect x="2" y="14" width="1" height="1" fill="#ABAEB1" />
<rect x="3" y="14" width="1" height="1" fill="#8F9091" />
<rect x="4" y="14" width="1" height="1" fill="#ABAEB1" />
<rect x="5" y="14" width="1" height="1" fill="#ABAEB1" />
<rect x="6" y="14" width="1" height="1" fill="#8F9091" />
<rect x="7" y="14" width="1" height="1" fill="#ABAEB1" />
<rect x="8" y="14" width="1" height="1" fill="#ABAEB1" />
<rect x="9" y="14" width="1" height="1" fill="#8F9091" />
<rect x="10" y="14" width="1" height="1" fill="#ABAEB1" />
<rect x="11" y="14" width="1" height="1" fill="#ABAEB1" />
<rect x="12" y="14" width="1" height="1" fill="#8F9091" />
<rect x="13" y="14" width="1" height="1" fill="#ABAEB1" />
<rect x="14" y="14" width="1" height="1" fill="#ABAEB1" />
<rect x="15" y="14" width="1" height="1" fill="#8F9091" />
<rect x="16" y="14" width="1" height="1" fill="#ABAEB1" />
<rect x="17" y="14" width="1" height="1" fill="#ABAEB1" />
<rect x="18" y="14" width="1" height="1" fill="#8F9091" />
<rect x="19" y="14" width="1" height="1" fill="#ABAEB1" />
<rect x="20" y="14" width="1" height="1" fill="#ABAEB1" />
<rect x="21" y="14" width="1" height="1" fill="#8F9091" />
<rect x="22" y="14" width="1" height="1" fill="#ABAEB1" />
<rect x="23" y="14" width="1" height="1" fill="#ABAEB1" />
<rect x="24" y="14" width="1" height="1" fill="#8F9091" />
<rect x="25" y="14" width="1" height="1" fill="#ABAEB1" />
<rect x="26" y="14" width="1" height="1" fill="#ABAEB1" />
<rect x="27" y="14" width="1" height="1" fill="#8F9091" />
<rect x="28" y="14" width="1" height="1" fill="#ABAEB1" />
<rect x="29" y="14" width="1" height="1" fill="#ABAEB1" />
<rect x="30" y="14" width="1" height="1" fill="#8F9091" />
<rect x="31" y="14" width="1" height="1" fill="#ABAEB1" />
<rect x="32" y="14" width="1" height="1" fill="#ABAEB1" />
<rect x="0" y="15" width="1" height="1" fill="#ABAEB1" />
<rect x="1" y="15" width="1" height="1" fill="#8F9091" />
<rect x="2" y="15" width="1" height="1" fill="#ABAEB1" />
<rect x="3" y="15" width="1" height="1" fill="#ABAEB1" />
<rect x="4" y="15" width="1" height="1" fill="#8F9091" />
<rect x="5" y="15" width="1" height="1" fill="#ABAEB1" />
<rect x="6" y="15" width="1" height="1" fill="#ABAEB1" />
<rect x="7" y="15" width="1" height="1" fill="#8F9091" />
<rect x="8" y="15" width="1" height="1" fill="#ABAEB1" />
<rect x="9" y="15" width="1" height="1" fill="#ABAEB1" />
<rect x="10" y="15" width="1" height="1" fill="#8F9091" />
<rect x="11" y="15" width="1" height="1" fill="#ABAEB1" />
<rect x="12" y="15" width="1" height="1" fill="#ABAEB1" />
<rect x="13" y="15" width="1" height="1" fill="#8F9091" />
<rect x="14" y="15" width="1" height="1" fill="#ABAEB1" />
<rect x="15" y="15" width="1" height="1" fill="#ABAEB1" />
<rect x="16" y="15" width="1" height="1" fill="#8F9091" />
<rect x="17" y="15" width="1" height="1" fill="#ABAEB1" />
<rect x="18" y="15" width="1" height="1" fill="#ABAEB1" />
<rect x="19" y="15" width="1" height="1" fill="#8F9091" />
<rect x="20" y="15" width="1" height="1" fill="#ABAEB1" />
<rect x="21" y="15" width="1" height="1" fill="#ABAEB1" />
<rect x="22" y="15" width="1" height="1" fill="#8F9091" />
<rect x="23" y="15" width="1" height="1" fill="#ABAEB1" />
<rect x="24" y="15" width="1" height="1" fill="#ABAEB1" />
<rect x="25" y="15" width="1" height="1" fill="#8F9091" />
<rect x="26" y="15" width="1" height="1" fill="#ABAEB1" />
<rect x="27" y="15" width="1" height="1" fill="#ABAEB1" />
<rect x="28" y="15" width="1" height="1" fill="#8F9091" />
<rect x="29" y="15" width="1" height="1" fill="#ABAEB1" />
<rect x="30" y="15" width="1" height="1" fill="#ABAEB1" />
<rect x="31" y="15" width="1" height="1" fill="#8F9091" />
<rect x="32" y="15" width="1" height="1" fill="#ABAEB1" />
<rect x="0" y="16" width="1" height="1" fill="#D95763" />
<rect x="1" y="16" width="1" height="1" fill="#D95763" />
<rect x="2" y="16" width="1" height="1" fill="#CF4854" />
<rect x="3" y="16" width="1" height="1" fill="#D95763" />
<rect x="4" y="16" width="1" height="1" fill="#D95763" />
<rect x="5" y="16" width="1" height="1" fill="#CF4854" />
<rect x="6" y="16" width="1" height="1" fill="#D95763" />
<rect x="7" y="16" width="1" height="1" fill="#D95763" />
<rect x="8" y="16" width="1" height="1" fill="#CF4854" />
<rect x="9" y="16" width="1" height="1" fill="#D95763" />
<rect x="10" y="16" width="1" height="1" fill="#D95763" />
<rect x="11" y="16" width="1" height="1" fill="#CF4854" />
<rect x="12" y="16" width="1" height="1" fill="#D95763" />
<rect x="13" y="16" width="1" height="1" fill="#D95763" />
<rect x="14" y="16" width="1" height="1" fill="#CF4854" />
<rect x="15" y="16" width="1" height="1" fill="#D95763" />
<rect x="16" y="16" width="1" height="1" fill="#D95763" />
<rect x="17" y="16" width="1" height="1" fill="#CF4854" />
<rect x="18" y="16" width="1" height="1" fill="#D95763" />
<rect x="19" y="16" width="1" height="1" fill="#D95763" />
<rect x="20" y="16" width="1" height="1" fill="#CF4854" />
<rect x="21" y="16" width="1" height="1" fill="#D95763" />
<rect x="22" y="16" width="1" height="1" fill="#D95763" />
<rect x="23" y="16" width="1" height="1" fill="#CF4854" />
<rect x="24" y="16" width="1" height="1" fill="#D95763" />
<rect x="25" y="16" width="1" height="1" fill="#D95763" />
<rect x="26" y="16" width="1" height="1" fill="#CF4854" />
<rect x="27" y="16" width="1" height="1" fill="#D95763" />
<rect x="28" y="16" width="1" height="1" fill="#D95763" />
<rect x="29" y="16" width="1" height="1" fill="#CF4854" />
<rect x="30" y="16" width="1" height="1" fill="#D95763" />
<rect x="31" y="16" width="1" height="1" fill="#D95763" />
<rect x="32" y="16" width="1" height="1" fill="#CF4854" />
<rect x="0" y="17" width="1" height="1" fill="#8F9091" />
<rect x="1" y="17" width="1" height="1" fill="#ABAEB1" />
<rect x="2" y="17" width="1" height="1" fill="#ABAEB1" />
<rect x="3" y="17" width="1" height="1" fill="#8F9091" />
<rect x="4" y="17" width="1" height="1" fill="#ABAEB1" />
<rect x="5" y="17" width="1" height="1" fill="#ABAEB1" />
<rect x="6" y="17" width="1" height="1" fill="#8F9091" />
<rect x="7" y="17" width="1" height="1" fill="#ABAEB1" />
<rect x="8" y="17" width="1" height="1" fill="#ABAEB1" />
<rect x="9" y="17" width="1" height="1" fill="#8F9091" />
<rect x="10" y="17" width="1" height="1" fill="#ABAEB1" />
<rect x="11" y="17" width="1" height="1" fill="#ABAEB1" />
<rect x="12" y="17" width="1" height="1" fill="#8F9091" />
<rect x="13" y="17" width="1" height="1" fill="#ABAEB1" />
<rect x="14" y="17" width="1" height="1" fill="#ABAEB1" />
<rect x="15" y="17" width="1" height="1" fill="#8F9091" />
<rect x="16" y="17" width="1" height="1" fill="#ABAEB1" />
<rect x="17" y="17" width="1" height="1" fill="#ABAEB1" />
<rect x="18" y="17" width="1" height="1" fill="#8F9091" />
<rect x="19" y="17" width="1" height="1" fill="#ABAEB1" />
<rect x="20" y="17" width="1" height="1" fill="#ABAEB1" />
<rect x="21" y="17" width="1" height="1" fill="#8F9091" />
<rect x="22" y="17" width="1" height="1" fill="#ABAEB1" />
<rect x="23" y="17" width="1" height="1" fill="#ABAEB1" />
<rect x="24" y="17" width="1" height="1" fill="#8F9091" />
<rect x="25" y="17" width="1" height="1" fill="#ABAEB1" />
<rect x="26" y="17" width="1" height="1" fill="#ABAEB1" />
<rect x="27" y="17" width="1" height="1" fill="#8F9091" />
<rect x="28" y="17" width="1" height="1" fill="#ABAEB1" />
<rect x="29" y="17" width="1" height="1" fill="#ABAEB1" />
<rect x="30" y="17" width="1" height="1" fill="#8F9091" />
<rect x="31" y="17" width="1" height="1" fill="#ABAEB1" />
<rect x="32" y="17" width="1" height="1" fill="#ABAEB1" />
<rect x="0" y="18" width="1" height="1" fill="#ABAEB1" />
<rect x="1" y="18" width="1" height="1" fill="#8F9091" />
<rect x="2" y="18" width="1" height="1" fill="#ABAEB1" />
<rect x="3" y="18" width="1" height="1" fill="#ABAEB1" />
<rect x="4" y="18" width="1" height="1" fill="#8F9091" />
<rect x="5" y="18" width="1" height="1" fill="#ABAEB1" />
<rect x="6" y="18" width="1" height="1" fill="#ABAEB1" />
<rect x="7" y="18" width="1" height="1" fill="#8F9091" />
<rect x="8" y="18" width="1" height="1" fill="#ABAEB1" />
<rect x="9" y="18" width="1" height="1" fill="#ABAEB1" />
<rect x="10" y="18" width="1" height="1" fill="#8F9091" />
<rect x="11" y="18" width="1" height="1" fill="#ABAEB1" />
<rect x="12" y="18" width="1" height="1" fill="#ABAEB1" />
<rect x="13" y="18" width="1" height="1" fill="#8F9091" />
<rect x="14" y="18" width="1" height="1" fill="#ABAEB1" />
<rect x="15" y="18" width="1" height="1" fill="#ABAEB1" />
<rect x="16" y="18" width="1" height="1" fill="#8F9091" />
<rect x="17" y="18" width="1" height="1" fill="#ABAEB1" />
<rect x="18" y="18" width="1" height="1" fill="#ABAEB1" />
<rect x="19" y="18" width="1" height="1" fill="#8F9091" />
<rect x="20" y="18" width="1" height="1" fill="#ABAEB1" />
<rect x="21" y="18" width="1" height="1" fill="#ABAEB1" />
<rect x="22" y="18" width="1" height="1" fill="#8F9091" />
<rect x="23" y="18" width="1" height="1" fill="#ABAEB1" />
<rect x="24" y="18" width="1" height="1" fill="#ABAEB1" />
<rect x="25" y="18" width="1" height="1" fill="#8F9091" />
<rect x="26" y="18" width="1" height="1" fill="#ABAEB1" />
<rect x="27" y="18" width="1" height="1" fill="#ABAEB1" />
<rect x="28" y="18" width="1" height="1" fill="#8F9091" />
<rect x="29" y="18" width="1" height="1" fill="#ABAEB1" />
<rect x="30" y="18" width="1" height="1" fill="#ABAEB1" />
<rect x="31" y="18" width="1" height="1" fill="#8F9091" />
<rect x="32" y="18" width="1" height="1" fill="#ABAEB1" />
<rect x="0" y="19" width="1" height="1" fill="#ABAEB1" />
<rect x="1" y="19" width="1" height="1" fill="#ABAEB1" />
<rect x="2" y="19" width="1" height="1" fill="#8F9091" />
<rect x="3" y="19" width="1" height="1" fill="#ABAEB1" />
<rect x="4" y="19" width="1" height="1" fill="#ABAEB1" />
<rect x="5" y="19" width="1" height="1" fill="#8F9091" />
<rect x="6" y="19" width="1" height="1" fill="#ABAEB1" />
<rect x="7" y="19" width="1" height="1" fill="#ABAEB1" />
<rect x="8" y="19" width="1" height="1" fill="#8F9091" />
<rect x="9" y="19" width="1" height="1" fill="#ABAEB1" />
<rect x="10" y="19" width="1" height="1" fill="#ABAEB1" />
<rect x="11" y="19" width="1" height="1" fill="#8F9091" />
<rect x="12" y="19" width="1" height="1" fill="#ABAEB1" />
<rect x="13" y="19" width="1" height="1" fill="#ABAEB1" />
<rect x="14" y="19" width="1" height="1" fill="#8F9091" />
<rect x="15" y="19" width="1" height="1" fill="#ABAEB1" />
<rect x="16" y="19" width="1" height="1" fill="#ABAEB1" />
<rect x="17" y="19" width="1" height="1" fill="#8F9091" />
<rect x="18" y="19" width="1" height="1" fill="#ABAEB1" />
<rect x="19" y="19" width="1" height="1" fill="#ABAEB1" />
<rect x="20" y="19" width="1" height="1" fill="#8F9091" />
<rect x="21" y="19" width="1" height="1" fill="#ABAEB1" />
<rect x="22" y="19" width="1" height="1" fill="#ABAEB1" />
<rect x="23" y="19" width="1" height="1" fill="#8F9091" />
<rect x="24" y="19" width="1" height="1" fill="#ABAEB1" />
<rect x="25" y="19" width="1" height="1" fill="#ABAEB1" />
<rect x="26" y="19" width="1" height="1" fill="#8F9091" />
<rect x="27" y="19" width="1" height="1" fill="#ABAEB1" />
<rect x="28" y="19" width="1" height="1" fill="#ABAEB1" />
<rect x="29" y="19" width="1" height="1" fill="#8F9091" />
<rect x="30" y="19" width="1" height="1" fill="#ABAEB1" />
<rect x="31" y="19" width="1" height="1" fill="#ABAEB1" />
<rect x="32" y="19" width="1" height="1" fill="#8F9091" />
<rect x="0" y="20" width="1" height="1" fill="#8F9091" />
<rect x="1" y="20" width="1" height="1" fill="#ABAEB1" />
<rect x="2" y="20" width="1" height="1" fill="#ABAEB1" />
<rect x="3" y="20" width="1" height="1" fill="#8F9091" />
<rect x="4" y="20" width="1" height="1" fill="#ABAEB1" />
<rect x="5" y="20" width="1" height="1" fill="#ABAEB1" />
<rect x="6" y="20" width="1" height="1" fill="#8F9091" />
<rect x="7" y="20" width="1" height="1" fill="#ABAEB1" />
<rect x="8" y="20" width="1" height="1" fill="#ABAEB1" />
<rect x="9" y="20" width="1" height="1" fill="#8F9091" />
<rect x="10" y="20" width="1" height="1" fill="#ABAEB1" />
<rect x="11" y="20" width="1" height="1" fill="#ABAEB1" />
<rect x="12" y="20" width="1" height="1" fill="#8F9091" />
<rect x="13" y="20" width="1" height="1" fill="#ABAEB1" />
<rect x="14" y="20" width="1" height="1" fill="#ABAEB1" />
<rect x="15" y="20" width="1" height="1" fill="#8F9091" />
<rect x="16" y="20" width="1" height="1" fill="#ABAEB1" />
<rect x="17" y="20" width="1" height="1" fill="#ABAEB1" />
<rect x="18" y="20" width="1" height="1" fill="#8F9091" />
<rect x="19" y="20" width="1" height="1" fill="#ABAEB1" />
<rect x="20" y="20" width="1" height="1" fill="#ABAEB1" />
<rect x="21" y="20" width="1" height="1" fill="#8F9091" />
<rect x="22" y="20" width="1" height="1" fill="#ABAEB1" />
<rect x="23" y="20" width="1" height="1" fill="#ABAEB1" />
<rect x="24" y="20" width="1" height="1" fill="#8F9091" />
<rect x="25" y="20" width="1" height="1" fill="#ABAEB1" />
<rect x="26" y="20" width="1" height="1" fill="#ABAEB1" />
<rect x="27" y="20" width="1" height="1" fill="#8F9091" />
<rect x="28" y="20" width="1" height="1" fill="#ABAEB1" />
<rect x="29" y="20" width="1" height="1" fill="#ABAEB1" />
<rect x="30" y="20" width="1" height="1" fill="#8F9091" />
<rect x="31" y="20" width="1" height="1" fill="#ABAEB1" />
<rect x="32" y="20" width="1" height="1" fill="#ABAEB1" />
<rect x="0" y="21" width="1" height="1" fill="#616161" />
<rect x="1" y="21" width="1" height="1" fill="#616161" />
<rect x="2" y="21" width="1" height="1" fill="#616161" />
<rect x="3" y="21" width="1" height="1" fill="#616161" />
<rect x="4" y="21" width="1" height="1" fill="#616161" />
<rect x="5" y="21" width="1" height="1" fill="#616161" />
<rect x="6" y="21" width="1" height="1" fill="#616161" />
<rect x="7" y="21" width="1" height="1" fill="#616161" />
<rect x="8" y="21" width="1" height="1" fill="#616161" />
<rect x="9" y="21" width="1" height="1" fill="#616161" />
<rect x="10" y="21" width="1" height="1" fill="#616161" />
<rect x="11" y="21" width="1" height="1" fill="#616161" />
<rect x="12" y="21" width="1" height="1" fill="#616161" />
<rect x="13" y="21" width="1" height="1" fill="#616161" />
<rect x="14" y="21" width="1" height="1" fill="#616161" />
<rect x="15" y="21" width="1" height="1" fill="#616161" />
<rect x="16" y="21" width="1" height="1" fill="#616161" />
<rect x="17" y="21" width="1" height="1" fill="#616161" />
<rect x="18" y="21" width="1" height="1" fill="#616161" />
<rect x="19" y="21" width="1" height="1" fill="#616161" />
<rect x="20" y="21" width="1" height="1" fill="#616161" />
<rect x="21" y="21" width="1" height="1" fill="#616161" />
<rect x="22" y="21" width="1" height="1" fill="#616161" />
<rect x="23" y="21" width="1" height="1" fill="#616161" />
<rect x="24" y="21" width="1" height="1" fill="#616161" />
<rect x="25" y="21" width="1" height="1" fill="#616161" />
<rect x="26" y="21" width="1" height="1" fill="#616161" />
<rect x="27" y="21" width="1" height="1" fill="#616161" />
<rect x="28" y="21" width="1" height="1" fill="#616161" />
<rect x="29" y="21" width="1" height="1" fill="#616161" />
<rect x="30" y="21" width="1" height="1" fill="#616161" />
<rect x="31" y="21" width="1" height="1" fill="#616161" />
<rect x="32" y="21" width="1" height="1" fill="#616161" />
</svg>